<svg xmlns="http://www.w3.org/2000/svg" width="536" height="388" fill="none" xmlns:v="https://vecta.io/nano"><style><![CDATA[.B{fill:#fff}.C{stroke:#c3c6cd}.D{stroke-opacity:.5}.E{stroke-width:.237}.F{fill:#2d2442}.G{stroke:#fff}.H{stroke-width:1.305}.I{fill-rule:evenodd}.J{stroke-linecap:round}.K{stroke-linejoin:round}.L{color-interpolation-filters:sRGB}.M{flood-opacity:0}.N{fill:#ee426a}.O{fill:#3a28a7}]]></style><g filter="url(#B)"><rect x="47" y="14" width="440" height="356" rx="8" fill="#f0f2f4"/></g><rect x="101.103" y="143.933" width="103.693" height="96.5" rx="3.795" class="B"/><rect x="101.222" y="144.051" width="103.456" height="96.263" rx="3.676" class="C D E"/><path d="M137.182 207.682c.567 0 1.057.094 1.471.283.42.189.743.457.968.804s.338.758.338 1.233c0 .469-.112.88-.338 1.233a2.189 2.189 0 0 1-.968.804c-.414.183-.904.274-1.471.274h-1.288v1.763h-1.48v-6.394h2.768zm-.082 3.425c.445 0 .783-.094 1.014-.283.231-.195.347-.469.347-.822 0-.359-.116-.633-.347-.822-.231-.195-.569-.293-1.014-.293h-1.206v2.22h1.206zm3.633-1.945h1.425v4.914h-1.425v-4.914zm.712-.686c-.262 0-.475-.076-.639-.228a.738.738 0 0 1-.247-.566.74.74 0 0 1 .247-.567c.164-.152.377-.228.639-.228s.475.073.64.219a.704.704 0 0 1 .246.548.79.79 0 0 1-.246.594c-.165.152-.378.228-.64.228zm4.228 5.673c-.524 0-.996-.106-1.416-.319a2.512 2.512 0 0 1-.978-.905 2.483 2.483 0 0 1-.347-1.306 2.48 2.48 0 0 1 .347-1.306 2.44 2.44 0 0 1 .978-.896c.42-.219.892-.329 1.416-.329.517 0 .968.11 1.352.329.389.213.673.521.849.923l-1.105.594c-.256-.451-.624-.676-1.105-.676-.372 0-.679.122-.923.365s-.365.576-.365.996.121.752.365.996.551.365.923.365c.487 0 .855-.225 1.105-.676l1.105.603c-.176.39-.46.694-.849.913s-.835.329-1.352.329zm6.08-.31c-.14.103-.313.182-.52.237a2.7 2.7 0 0 1-.64.073c-.584 0-1.038-.149-1.361-.447-.317-.299-.475-.737-.475-1.316v-2.019h-.758v-1.096h.758v-1.197h1.425v1.197h1.224v1.096h-1.224v2.001c0 .207.052.368.155.484.11.11.262.165.457.165a.918.918 0 0 0 .576-.183l.383 1.005zm5.569-4.677v4.914h-1.352v-.584a1.945 1.945 0 0 1-.676.493 2.19 2.19 0 0 1-.85.164c-.645 0-1.157-.185-1.534-.557s-.567-.923-.567-1.653v-2.777h1.425v2.566c0 .792.332 1.188.996 1.188.341 0 .615-.11.822-.329.207-.225.311-.557.311-.996v-2.429h1.425zm2.498.648c.171-.237.399-.417.685-.539a2.595 2.595 0 0 1 1.005-.183v1.316a5.225 5.225 0 0 0-.319-.018c-.408 0-.728.115-.96.347-.231.225-.347.566-.347 1.023v2.32h-1.425v-4.914h1.361v.648zm7.125 1.827c0 .018-.01.146-.028.384h-3.718a1.16 1.16 0 0 0 .475.721c.25.177.56.265.932.265a1.92 1.92 0 0 0 .676-.109 1.68 1.68 0 0 0 .557-.366l.758.823c-.462.529-1.138.794-2.028.794-.554 0-1.044-.106-1.47-.319a2.412 2.412 0 0 1-.987-.905 2.483 2.483 0 0 1-.347-1.306c0-.481.113-.914.338-1.297.231-.39.545-.692.941-.905a2.76 2.76 0 0 1 1.343-.329 2.74 2.74 0 0 1 1.306.311c.39.207.694.506.914.895.225.384.338.832.338 1.343zm-2.549-1.471a1.23 1.23 0 0 0-.813.274 1.171 1.171 0 0 0-.402.75h2.421a1.16 1.16 0 0 0-.402-.74 1.188 1.188 0 0 0-.804-.284zm4.968 3.983a4.89 4.89 0 0 1-1.197-.146c-.389-.103-.7-.231-.931-.384l.475-1.023c.219.14.484.256.794.347s.615.128.914.128c.603 0 .904-.149.904-.447 0-.14-.082-.241-.246-.302s-.418-.112-.759-.155a7.347 7.347 0 0 1-.995-.21 1.568 1.568 0 0 1-.685-.42c-.189-.201-.284-.488-.284-.859 0-.311.089-.585.265-.822.183-.244.445-.433.786-.567.347-.134.755-.201 1.224-.201a4.56 4.56 0 0 1 1.032.119c.347.073.634.177.859.311l-.475 1.014a2.836 2.836 0 0 0-1.416-.366c-.305 0-.533.043-.685.128s-.229.195-.229.329c0 .152.083.259.247.32s.426.119.786.173c.402.067.73.14.986.22.256.073.478.21.667.411s.283.481.283.84c0 .305-.091.576-.274.813s-.45.423-.804.557c-.347.128-.761.192-1.242.192z" class="F"/><rect x="137.395" y="166.753" width="31.108" height="31.297" rx="5.22" fill="#ffc83c"/><mask id="A" class="B"><rect x="147.116" y="176.533" width="11.665" height="11.736" rx=".653"/></mask><g class="G"><rect x="147.116" y="176.533" width="11.665" height="11.736" rx=".653" stroke-width="2.61" mask="url(#A)"/><g class="H"><path d="m158.133 185.009-3.24-1.956-7.129 3.912" class="J K"/><path d="M151.004 181.75c.722 0 1.301-.588 1.301-1.305s-.579-1.304-1.301-1.304-1.301.588-1.301 1.304.579 1.305 1.301 1.305z"/></g></g><rect x="329.49" y="250.77" width="103.693" height="96.5" rx="3.795" class="B"/><rect x="329.608" y="250.888" width="103.456" height="96.263" rx="3.676" class="C D E"/><path d="M368.196 320.914l-1.233-1.782h-1.362v1.782h-1.479v-6.395h2.767c.567 0 1.057.094 1.471.283.42.189.743.457.969.804s.338.758.338 1.233-.116.886-.348 1.234c-.225.341-.548.602-.968.785l1.434 2.056h-1.589zm-.028-4.075c0-.359-.115-.633-.347-.822-.231-.195-.569-.292-1.014-.292h-1.206v2.229h1.206c.445 0 .783-.098 1.014-.292s.347-.469.347-.823zm4.726 4.148a3.01 3.01 0 0 1-1.397-.32 2.45 2.45 0 0 1-.959-.904 2.478 2.478 0 0 1-.348-1.307c0-.487.116-.922.348-1.306a2.38 2.38 0 0 1 .959-.895 2.93 2.93 0 0 1 1.397-.329c.518 0 .981.109 1.389.329a2.38 2.38 0 0 1 .959.895c.232.384.347.819.347 1.306s-.115.923-.347 1.307a2.45 2.45 0 0 1-.959.904c-.408.213-.871.32-1.389.32zm0-1.17c.366 0 .664-.121.896-.365.237-.25.356-.582.356-.996s-.119-.743-.356-.986a1.166 1.166 0 0 0-.896-.375c-.365 0-.666.125-.904.375-.237.243-.356.572-.356.986s.119.746.356.996c.238.244.539.365.904.365zm8.416-3.818v4.915h-1.352v-.585a1.933 1.933 0 0 1-.676.493 2.17 2.17 0 0 1-.849.165c-.646 0-1.157-.186-1.535-.558s-.566-.922-.566-1.653v-2.777h1.425v2.567c0 .792.332 1.187.995 1.187.341 0 .616-.109.823-.328.207-.226.31-.558.31-.996v-2.43h1.425zm4.125-.073c.609 0 1.099.183 1.471.548s.566.907.566 1.626v2.814h-1.425v-2.595c0-.39-.085-.679-.256-.868s-.417-.292-.74-.292c-.359 0-.645.113-.858.338-.214.219-.32.548-.32.987v2.43h-1.425v-4.915h1.361v.575a1.85 1.85 0 0 1 .703-.475c.28-.115.588-.173.923-.173zm8.206-1.791v6.779h-1.362v-.567c-.353.427-.864.64-1.534.64a2.58 2.58 0 0 1-1.261-.311 2.232 2.232 0 0 1-.877-.886c-.213-.384-.32-.828-.32-1.334s.107-.95.32-1.333a2.24 2.24 0 0 1 .877-.887 2.58 2.58 0 0 1 1.261-.31c.627 0 1.117.198 1.471.594v-2.385h1.425zm-2.65 5.682c.36 0 .658-.121.896-.365.237-.25.356-.582.356-.996s-.119-.743-.356-.986a1.184 1.184 0 0 0-.896-.375c-.365 0-.666.125-.904.375-.237.243-.356.572-.356.986s.119.746.356.996c.238.244.539.365.904.365zm5.439 1.17a4.88 4.88 0 0 1-1.196-.147c-.39-.103-.701-.231-.932-.383l.475-1.023a3.11 3.11 0 0 0 .795.347c.31.085.615.128.913.128.603 0 .904-.149.904-.448 0-.14-.082-.24-.246-.301s-.417-.113-.758-.156a7.365 7.365 0 0 1-.996-.21 1.574 1.574 0 0 1-.685-.42c-.189-.201-.283-.487-.283-.859 0-.31.088-.584.264-.822.183-.243.445-.432.786-.566.347-.134.755-.201 1.224-.201.347 0 .691.039 1.032.119.348.073.634.176.859.31l-.475 1.014a2.84 2.84 0 0 0-1.416-.365c-.304 0-.533.042-.685.128s-.228.195-.228.329c0 .152.082.258.246.319s.427.119.786.174c.402.067.731.14.987.219.255.073.478.21.666.411s.284.481.284.841c0 .304-.092.575-.274.813s-.451.423-.804.557c-.348.128-.762.192-1.243.192z" class="F"/><rect x="365.781" y="273.59" width="31.108" height="31.297" rx="5.22" class="N"/><g fill="#a597ff"><path d="M365.693 278.22a5.22 5.22 0 0 1 5.22-5.22h21.56a5.22 5.22 0 0 1 5.22 5.22v21.56a5.22 5.22 0 0 1-5.22 5.22h-21.56a5.22 5.22 0 0 1-5.22-5.22v-21.56Z"/><rect x="365.693" y="273" width="32" height="32" rx="5.22"/></g><path d="M382.653 282.715a1.8 1.8 0 0 0-1.789 0l.323.563-.323-.563-4.11 2.35-.001.001a1.845 1.845 0 0 0-.684.686 1.892 1.892 0 0 0-.248.937v4.625c0 .328.085.651.248.936s.399.523.684.686h.001l4.11 2.352a1.799 1.799 0 0 0 1.789 0l4.11-2.352a1.84 1.84 0 0 0 .685-.686 1.89 1.89 0 0 0 .248-.937v-4.624a1.89 1.89 0 0 0-.248-.937 1.84 1.84 0 0 0-.685-.686v-.001l-4.11-2.35z" class="G H"/><g class="B"><path d="M380.053 287.137a.653.653 0 0 0 .671 1.119l.643-.386v3.089a.652.652 0 0 0 1.305 0v-4.231a.652.652 0 0 0-.997-.564l-1.622.973Z"/><rect x="215.166" y="143.933" width="103.693" height="96.5" rx="3.795"/></g><rect x="215.284" y="144.051" width="103.456" height="96.263" rx="3.676" class="C D E"/><path d="M252.318 207.029h2.905c.694 0 1.306.134 1.836.402.536.262.95.634 1.242 1.115.299.481.448 1.041.448 1.681s-.149 1.199-.448 1.68a2.96 2.96 0 0 1-1.242 1.124c-.53.262-1.142.393-1.836.393h-2.905v-6.395zm2.832 5.18c.639 0 1.148-.177 1.525-.53.384-.359.576-.843.576-1.452s-.192-1.091-.576-1.444c-.377-.359-.886-.539-1.525-.539h-1.352v3.965h1.352zm6.414-3.773c.761 0 1.346.183 1.754.548s.612.905.612 1.635v2.805h-1.334v-.612c-.268.457-.767.685-1.498.685-.377 0-.706-.064-.986-.192a1.472 1.472 0 0 1-.631-.53 1.379 1.379 0 0 1-.219-.767c0-.457.171-.816.512-1.078.347-.262.88-.393 1.598-.393h1.133c0-.31-.094-.548-.283-.712-.189-.171-.472-.256-.85-.256a2.42 2.42 0 0 0-.776.128c-.25.079-.463.189-.64.329l-.511-.996c.268-.189.587-.335.959-.439a4.39 4.39 0 0 1 1.16-.155zm-.109 4.102c.243 0 .459-.055.648-.165a.942.942 0 0 0 .402-.502v-.503h-.977c-.585 0-.877.192-.877.576 0 .183.07.329.21.438.146.104.344.156.594.156zm6.569-4.102c.609 0 1.1.183 1.471.548.378.366.566.908.566 1.626v2.814h-1.425v-2.595c0-.389-.085-.679-.255-.867-.171-.195-.418-.293-.74-.293-.36 0-.646.113-.859.338s-.32.548-.32.987v2.43h-1.425v-4.915h1.361v.576c.189-.207.424-.366.704-.475.28-.116.587-.174.922-.174zm5.575 5.061c-.524 0-.996-.107-1.416-.32a2.5 2.5 0 0 1-.977-.904 2.474 2.474 0 0 1-.347-1.306c0-.488.115-.923.347-1.307.237-.383.563-.682.977-.895.42-.219.892-.329 1.416-.329.518 0 .968.11 1.352.329.39.213.673.521.85.923l-1.106.593c-.256-.45-.624-.676-1.105-.676a1.25 1.25 0 0 0-.923.366c-.243.243-.365.575-.365.996s.122.752.365.995a1.25 1.25 0 0 0 .923.366c.487 0 .856-.226 1.105-.676l1.106.603a1.96 1.96 0 0 1-.85.913c-.384.219-.834.329-1.352.329zm7.591-2.512a15.69 15.69 0 0 1-.027.383h-3.718c.067.305.225.546.475.722s.56.265.932.265c.255 0 .481-.037.676-.11.201-.079.386-.201.557-.365l.758.822c-.463.53-1.139.795-2.028.795-.554 0-1.044-.107-1.471-.32a2.407 2.407 0 0 1-.986-.904 2.474 2.474 0 0 1-.347-1.306c0-.482.112-.914.338-1.298a2.4 2.4 0 0 1 .94-.904c.402-.219.85-.329 1.343-.329.481 0 .917.104 1.307.311a2.23 2.23 0 0 1 .913.895c.225.384.338.831.338 1.343zm-2.549-1.471c-.322 0-.593.091-.813.274a1.163 1.163 0 0 0-.401.749h2.42a1.155 1.155 0 0 0-.402-.74 1.188 1.188 0 0 0-.804-.283z" class="F"/><rect x="251.458" y="166.753" width="31.108" height="31.297" rx="5.22" class="O"/><g class="N"><path d="M251 171.22a5.22 5.22 0 0 1 5.22-5.22h21.56a5.22 5.22 0 0 1 5.22 5.22v22.56a5.22 5.22 0 0 1-5.22 5.22h-21.56a5.22 5.22 0 0 1-5.22-5.22v-22.56Z"/><rect x="251" y="166" width="32" height="33" rx="5.22"/></g><g class="G H K"><path d="M264.867 186.9v-9.533l8.533-1.467v9.533m-10.667 3.667c1.179 0 2.134-.985 2.134-2.2s-.955-2.2-2.134-2.2-2.133.985-2.133 2.2.955 2.2 2.133 2.2z" class="J"/><path d="M271.267 187.633c1.178 0 2.133-.985 2.133-2.2s-.955-2.2-2.133-2.2-2.134.985-2.134 2.2.955 2.2 2.134 2.2z"/></g><rect x="214.796" y="250.77" width="103.693" height="96.5" rx="3.795" class="B"/><rect x="214.915" y="250.888" width="103.456" height="96.263" rx="3.676" class="C D E"/><path d="M235.672 313.867h2.905c.694 0 1.306.134 1.836.402.536.262.95.633 1.242 1.114.299.481.448 1.042.448 1.681s-.149 1.2-.448 1.681a2.965 2.965 0 0 1-1.242 1.123c-.53.262-1.142.393-1.836.393h-2.905v-6.394zm2.832 5.179c.639 0 1.148-.176 1.525-.53.384-.359.576-.843.576-1.452s-.192-1.09-.576-1.443c-.377-.36-.886-.539-1.525-.539h-1.352v3.964h1.352zm5.793-3.051c.171-.237.399-.417.685-.539a2.592 2.592 0 0 1 1.005-.182v1.315a5.203 5.203 0 0 0-.32-.018c-.408 0-.727.115-.959.347-.231.225-.347.566-.347 1.023v2.32h-1.425v-4.914h1.361v.648zm4.31-.721c.761 0 1.346.182 1.754.548.408.359.612.904.612 1.635v2.804h-1.334v-.612c-.267.457-.767.685-1.498.685-.377 0-.706-.064-.986-.192a1.47 1.47 0 0 1-.631-.529 1.382 1.382 0 0 1-.219-.768c0-.456.171-.816.512-1.078.347-.261.88-.392 1.598-.392h1.133c0-.311-.094-.549-.283-.713-.189-.17-.472-.256-.85-.256a2.45 2.45 0 0 0-.776.128c-.25.079-.463.189-.64.329l-.511-.996a3.08 3.08 0 0 1 .959-.438 4.348 4.348 0 0 1 1.16-.155zm-.109 4.101c.243 0 .459-.055.648-.164a.944.944 0 0 0 .402-.503v-.502h-.977c-.585 0-.877.192-.877.575a.53.53 0 0 0 .21.439c.146.103.344.155.594.155zm11.386-4.028l-1.782 4.914h-1.37l-1.105-3.051-1.142 3.051h-1.37l-1.773-4.914h1.343l1.16 3.325 1.206-3.325h1.206l1.169 3.325 1.197-3.325h1.261zm7.196 3.544h-2.969l-.567 1.37h-1.516l2.85-6.394h1.462l2.859 6.394h-1.553l-.566-1.37zm-.466-1.124l-1.014-2.448-1.014 2.448h2.028zm5.952-2.493c.609 0 1.1.182 1.471.548.378.365.566.907.566 1.626v2.813h-1.425v-2.594c0-.39-.085-.679-.255-.868-.171-.195-.418-.292-.74-.292-.36 0-.646.112-.859.338-.213.219-.32.548-.32.986v2.43h-1.425v-4.914h1.361v.575c.189-.207.424-.365.704-.475.28-.116.587-.173.922-.173zm4.8 5.06a4.89 4.89 0 0 1-1.197-.146c-.39-.103-.7-.231-.932-.384l.475-1.023c.22.14.485.256.795.347s.615.128.914.128c.603 0 .904-.149.904-.447 0-.14-.082-.241-.247-.302s-.417-.112-.758-.155a7.365 7.365 0 0 1-.996-.21 1.58 1.58 0 0 1-.685-.42c-.188-.201-.283-.488-.283-.859 0-.311.088-.585.265-.822.183-.244.445-.433.786-.567.347-.133.755-.2 1.224-.2a4.56 4.56 0 0 1 1.032.118c.347.073.633.177.859.311l-.475 1.014a2.836 2.836 0 0 0-1.416-.366c-.305 0-.533.043-.685.128s-.229.195-.229.329c0 .152.083.259.247.32s.426.119.786.173c.401.067.73.141.986.22.256.073.478.21.667.411s.283.481.283.84c0 .305-.091.576-.274.813s-.451.423-.804.557c-.347.128-.761.192-1.242.192zm10.82-4.987l-1.781 4.914h-1.37l-1.106-3.051-1.142 3.051h-1.37l-1.772-4.914h1.343l1.16 3.325 1.206-3.325h1.206l1.169 3.325 1.197-3.325h1.26zm5.16 2.475c0 .018-.009.146-.027.384h-3.718a1.16 1.16 0 0 0 .475.722c.25.176.56.264.932.264a1.92 1.92 0 0 0 .676-.109 1.69 1.69 0 0 0 .557-.366l.758.823c-.463.529-1.139.794-2.028.794-.554 0-1.044-.106-1.471-.319a2.41 2.41 0 0 1-.986-.905 2.472 2.472 0 0 1-.347-1.306c0-.481.112-.914.338-1.297a2.4 2.4 0 0 1 .941-.905 2.759 2.759 0 0 1 1.343-.328 2.74 2.74 0 0 1 1.306.31 2.23 2.23 0 0 1 .913.895c.226.384.338.832.338 1.343zm-2.548-1.471a1.23 1.23 0 0 0-.813.274c-.22.183-.354.433-.402.75h2.42a1.154 1.154 0 0 0-.401-.74 1.192 1.192 0 0 0-.804-.284zm4.675-.356c.171-.237.399-.417.686-.539a2.587 2.587 0 0 1 1.004-.182v1.315a5.184 5.184 0 0 0-.319-.018c-.408 0-.728.115-.959.347-.232.225-.348.566-.348 1.023v2.32h-1.425v-4.914h1.361v.648z" class="F"/><rect x="251.089" y="273.59" width="31.108" height="31.297" rx="5.22" class="O"/><g class="B"><path d="M262.423 288.651l.028-.022 6.361-4.628a2.987 2.987 0 0 1 1.448-.617c.582-.069 1.276.078 1.737.76.348.514.543 1.076.432 1.675-.107.578-.472 1.026-.883 1.387l-.011.01-6.37 5.347c-.319.277-.756.402-1.12.47a7.422 7.422 0 0 1-1.208.105c-.389.005-.752-.01-1.016-.027l-.317-.024a13.394 13.394 0 0 0-.09-.009l-.024-.002-.007-.001h-.003l.077-.672-.62-.102v-.001l.001-.003.001-.007.004-.024.016-.088a12.36 12.36 0 0 1 .319-1.296c.116-.377.268-.796.461-1.182.19-.377.444-.772.784-1.049zm-.966 3.752l-.077.672a.602.602 0 0 1-.429-.259.699.699 0 0 1-.114-.515l.62.102zm.776-.623l.615.008a6.168 6.168 0 0 0 1.008-.084l.274-.066-1.17-1.684a2.8 2.8 0 0 0-.215.365c-.146.29-.27.627-.372.959a9.966 9.966 0 0 0-.14.502zm1.745-2.648l1.199 1.726 5.59-4.693c.314-.277.406-.465.428-.581.017-.095.013-.283-.223-.633-.124-.182-.31-.26-.601-.226a1.752 1.752 0 0 0-.855.378l-5.538 4.029zm-3.172 5.973c0-.36.292-.652.653-.652h10.369a.652.652 0 0 1 0 1.305h-10.369a.653.653 0 0 1-.653-.653z" class="I"/><rect x="101.103" y="250.77" width="103.693" height="96.5" rx="3.795"/></g><rect x="101.222" y="250.888" width="103.456" height="96.263" rx="3.676" class="C D E"/><path d="M128.065 315.073h-2.047v-1.206h5.573v1.206h-2.046v5.188h-1.48v-5.188zm5.293.922c.17-.237.399-.417.685-.539a2.589 2.589 0 0 1 1.005-.182v1.315a5.203 5.203 0 0 0-.32-.018c-.408 0-.728.115-.959.347-.231.225-.347.566-.347 1.023v2.32h-1.425v-4.914h1.361v.648zm7.341-.648v4.914h-1.352v-.584a1.936 1.936 0 0 1-.676.493c-.261.11-.545.164-.849.164-.646 0-1.157-.185-1.535-.557s-.566-.923-.566-1.653v-2.777h1.425v2.567c0 .791.332 1.187.996 1.187.341 0 .615-.11.822-.329.207-.225.31-.557.31-.995v-2.43h1.425zm5.952 2.475c0 .018-.009.146-.027.384h-3.718a1.16 1.16 0 0 0 .475.722c.249.176.56.264.932.264.255 0 .481-.036.676-.109a1.69 1.69 0 0 0 .557-.366l.758.823c-.463.529-1.139.794-2.028.794-.554 0-1.044-.106-1.471-.319a2.41 2.41 0 0 1-.986-.905 2.472 2.472 0 0 1-.347-1.306c0-.481.112-.914.338-1.297.231-.39.545-.691.94-.905.402-.219.85-.328 1.343-.328.481 0 .917.103 1.307.31s.694.506.913.895c.225.384.338.832.338 1.343zm-2.549-1.471c-.322 0-.593.092-.813.274a1.171 1.171 0 0 0-.402.75h2.421a1.15 1.15 0 0 0-.402-.74 1.188 1.188 0 0 0-.804-.284zm7.775-3.781h1.27l-3.015 8.605h-1.27l3.015-8.605zm5.324 2.484v1.69h2.96v1.188h-2.96v2.329h-1.48v-6.394h4.832v1.187h-3.352zm5.92.22c.761 0 1.345.182 1.753.548.408.359.613.904.613 1.635v2.804h-1.334v-.612c-.268.457-.768.685-1.498.685-.378 0-.707-.064-.987-.192a1.462 1.462 0 0 1-.63-.529 1.382 1.382 0 0 1-.219-.768c0-.456.17-.816.511-1.078.347-.261.88-.392 1.599-.392h1.132c0-.311-.094-.549-.283-.713-.189-.17-.472-.256-.849-.256a2.45 2.45 0 0 0-.777.128 1.978 1.978 0 0 0-.639.329l-.512-.996a3.08 3.08 0 0 1 .959-.438 4.356 4.356 0 0 1 1.161-.155zm-.11 4.101c.244 0 .46-.055.648-.164a.944.944 0 0 0 .402-.503v-.502h-.977c-.585 0-.877.192-.877.575a.53.53 0 0 0 .21.439c.146.103.344.155.594.155zm3.583-5.892h1.425v6.778h-1.425v-6.778zm4.218 6.851a4.89 4.89 0 0 1-1.197-.146c-.39-.103-.7-.231-.932-.384l.475-1.023c.22.14.485.256.795.347s.615.128.914.128c.603 0 .904-.149.904-.447 0-.14-.082-.241-.247-.302s-.417-.112-.758-.155a7.313 7.313 0 0 1-.995-.21 1.577 1.577 0 0 1-.686-.42c-.188-.201-.283-.488-.283-.859 0-.311.089-.585.265-.822.183-.244.445-.433.786-.567.347-.133.755-.2 1.224-.2a4.56 4.56 0 0 1 1.032.118c.347.073.633.177.859.311l-.475 1.014a2.836 2.836 0 0 0-1.416-.366c-.305 0-.533.043-.685.128s-.229.195-.229.329c0 .152.083.259.247.32s.426.119.786.173c.402.067.73.141.986.22.256.073.478.21.667.411s.283.481.283.84c0 .305-.091.576-.274.813s-.45.423-.804.557c-.347.128-.761.192-1.242.192zm7.831-2.512c0 .018-.009.146-.027.384h-3.718a1.16 1.16 0 0 0 .475.722c.249.176.56.264.931.264a1.92 1.92 0 0 0 .676-.109c.201-.079.387-.201.558-.366l.758.823c-.463.529-1.139.794-2.028.794-.554 0-1.045-.106-1.471-.319a2.419 2.419 0 0 1-.987-.905 2.48 2.48 0 0 1-.347-1.306c0-.481.113-.914.338-1.297.232-.39.545-.691.941-.905.402-.219.85-.328 1.343-.328.481 0 .917.103 1.306.31a2.23 2.23 0 0 1 .914.895c.225.384.338.832.338 1.343zm-2.549-1.471a1.23 1.23 0 0 0-.813.274 1.171 1.171 0 0 0-.402.75h2.421a1.16 1.16 0 0 0-.402-.74 1.188 1.188 0 0 0-.804-.284z" class="F"/><rect x="137.396" y="273.59" width="31.108" height="31.297" rx="5.22" class="O"/><path d="M148.73 288.651a.301.301 0 0 1 .028-.022l6.361-4.628c.357-.286.89-.551 1.447-.617.583-.069 1.277.078 1.738.76.347.514.543 1.076.432 1.675-.107.578-.472 1.026-.883 1.387l-.011.01-6.37 5.347c-.319.277-.756.402-1.121.47a7.4 7.4 0 0 1-1.207.105c-.389.005-.752-.01-1.016-.027l-.318-.024a9.348 9.348 0 0 0-.089-.009l-.025-.002-.006-.001h-.003l.077-.672-.62-.102v-.004l.001-.007.005-.024.016-.088a12.36 12.36 0 0 1 .319-1.296 7.64 7.64 0 0 1 .461-1.182c.189-.377.443-.772.784-1.049zm-.966 3.752l-.078.672a.605.605 0 0 1-.429-.259.703.703 0 0 1-.113-.515l.62.102zm.776-.623l.615.008a6.178 6.178 0 0 0 1.008-.084l.274-.066-1.17-1.684c-.07.098-.142.22-.216.365-.145.29-.269.627-.371.959a9.966 9.966 0 0 0-.14.502zm1.745-2.648l1.199 1.726 5.589-4.693c.315-.277.407-.465.428-.581.018-.095.014-.283-.223-.633-.123-.182-.31-.26-.6-.226a1.76 1.76 0 0 0-.855.378l-5.538 4.029zm-3.172 5.973a.65.65 0 0 1 .652-.652h10.37a.652.652 0 0 1 0 1.305h-10.37a.652.652 0 0 1-.652-.653z" class="B I"/><rect x="136.833" y="273.59" width="31.108" height="31.297" rx="5.22" class="N"/><rect x="136.745" y="273" width="32" height="32" rx="5.22" fill="#e7e8eb"/><g class="H J K"><path d="m147.837 286.703 2.136 2.61 4.389-4.568" stroke="#65c15d"/><path d="M158.278 289.639l-3.915 3.915m0-3.915l3.915 3.915" stroke="#ff7471"/></g><rect x="101.103" y="37" width="103.693" height="96.5" rx="3.795" class="B"/><rect x="101.222" y="37.119" width="103.456" height="96.263" rx="3.676" class="C D E"/><path d="M123.076 106.491l-.009-3.836-1.882 3.16h-.667l-1.873-3.078v3.754h-1.388v-6.394h1.224l2.393 3.973 2.357-3.973h1.215l.018 6.394h-1.388zm7.573-4.914v4.914h-1.352v-.584a1.936 1.936 0 0 1-.676.493 2.188 2.188 0 0 1-.849.164c-.646 0-1.157-.185-1.535-.557s-.566-.923-.566-1.653v-2.777h1.425v2.567c0 .791.332 1.187.996 1.187.341 0 .615-.11.822-.329.207-.225.31-.557.31-.996v-2.429h1.425zm1.138-1.864h1.425v6.778h-1.425v-6.778zm6.091 6.541c-.14.103-.313.182-.52.237a2.693 2.693 0 0 1-.64.073c-.584 0-1.038-.149-1.361-.447-.316-.299-.475-.737-.475-1.316v-2.019h-.758v-1.096h.758v-1.196h1.425v1.196h1.224v1.096h-1.224v2.001c0 .207.052.368.156.484.109.11.261.165.456.165a.916.916 0 0 0 .576-.183l.383 1.005zm.618-4.677h1.425v4.914h-1.425v-4.914zm.712-.686c-.262 0-.475-.076-.639-.228a.738.738 0 0 1-.247-.566.74.74 0 0 1 .247-.567c.164-.152.377-.228.639-.228s.475.073.64.22a.704.704 0 0 1 .246.547.79.79 0 0 1-.246.594c-.165.152-.378.228-.64.228zm4.758.612c.456 0 .87.107 1.242.32.378.207.673.503.886.886s.32.819.32 1.325-.107.95-.32 1.334a2.293 2.293 0 0 1-.886.886 2.51 2.51 0 0 1-1.242.31c-.628 0-1.121-.198-1.48-.593v2.292h-1.425v-6.686h1.361v.566c.353-.426.868-.64 1.544-.64zm-.247 3.892a1.18 1.18 0 0 0 .895-.365c.238-.25.356-.582.356-.996s-.118-.743-.356-.987a1.167 1.167 0 0 0-.895-.374c-.365 0-.667.125-.904.374s-.348.573-.348.987.116.746.348.996a1.21 1.21 0 0 0 .904.365zm3.466-5.682h1.425v6.778h-1.425v-6.778zm7.379 4.339c0 .018-.009.146-.027.384h-3.718c.067.304.225.545.475.721s.56.265.932.265c.255 0 .481-.036.676-.109a1.69 1.69 0 0 0 .557-.366l.758.823c-.463.529-1.139.794-2.028.794-.554 0-1.044-.106-1.471-.319a2.41 2.41 0 0 1-.986-.905 2.472 2.472 0 0 1-.347-1.306c0-.481.112-.914.338-1.297.231-.39.545-.691.94-.905.402-.219.85-.329 1.343-.329.481 0 .917.104 1.307.311s.694.506.913.895c.225.384.338.832.338 1.343zm-2.549-1.471c-.322 0-.593.092-.813.274a1.166 1.166 0 0 0-.401.75h2.42a1.15 1.15 0 0 0-.402-.74 1.188 1.188 0 0 0-.804-.284zm8.88 4.02c-.651 0-1.242-.14-1.772-.42a3.252 3.252 0 0 1-1.242-1.179 3.29 3.29 0 0 1-.448-1.708c0-.633.149-1.2.448-1.699a3.166 3.166 0 0 1 1.242-1.179 3.69 3.69 0 0 1 1.781-.429c.555 0 1.054.098 1.499.292s.828.475 1.132.841l-.95.877c-.432-.5-.968-.749-1.608-.749a2.1 2.1 0 0 0-1.059.265 1.85 1.85 0 0 0-.731.721 2.162 2.162 0 0 0-.256 1.06c0 .396.085.749.256 1.06.177.31.42.554.731.73s.664.256 1.059.256c.64 0 1.176-.253 1.608-.758l.95.877a2.967 2.967 0 0 1-1.132.85 3.78 3.78 0 0 1-1.508.292zm6.344-5.098c.609 0 1.099.183 1.47.549.378.365.567.907.567 1.626v2.813h-1.425v-2.594c0-.39-.086-.679-.256-.868-.171-.195-.417-.292-.74-.292-.359 0-.646.112-.859.338-.213.219-.319.548-.319.986v2.43h-1.426v-6.778h1.426v2.375a1.83 1.83 0 0 1 .685-.429c.268-.104.56-.156.877-.156zm5.538 5.061a3.01 3.01 0 0 1-1.398-.319 2.452 2.452 0 0 1-.959-.905 2.48 2.48 0 0 1-.347-1.306 2.48 2.48 0 0 1 .347-1.306 2.39 2.39 0 0 1 .959-.896c.414-.219.88-.329 1.398-.329s.98.11 1.388.329.728.512.96.896a2.48 2.48 0 0 1 .347 1.306 2.48 2.48 0 0 1-.347 1.306 2.462 2.462 0 0 1-.96.905 2.955 2.955 0 0 1-1.388.319zm0-1.169a1.18 1.18 0 0 0 .895-.365c.238-.25.356-.582.356-.996s-.118-.743-.356-.987a1.167 1.167 0 0 0-.895-.374c-.366 0-.667.125-.905.374s-.356.573-.356.987.119.746.356.996c.238.243.539.365.905.365zm3.465-3.818h1.425v4.914h-1.425v-4.914zm.712-.686c-.262 0-.475-.076-.639-.228a.738.738 0 0 1-.247-.566.74.74 0 0 1 .247-.567c.164-.152.377-.228.639-.228s.475.073.639.22a.701.701 0 0 1 .247.547.788.788 0 0 1-.247.594c-.164.152-.377.228-.639.228zm4.228 5.673c-.524 0-.996-.106-1.416-.319a2.512 2.512 0 0 1-.978-.905 2.48 2.48 0 0 1-.347-1.306 2.48 2.48 0 0 1 .347-1.306c.238-.384.564-.682.978-.896.42-.219.892-.329 1.416-.329.517 0 .968.11 1.352.329s.672.521.849.923l-1.105.594c-.256-.451-.624-.676-1.106-.676a1.25 1.25 0 0 0-.922.365c-.244.244-.366.576-.366.996s.122.752.366.996a1.25 1.25 0 0 0 .922.365c.488 0 .856-.225 1.106-.676l1.105.603c-.177.39-.46.694-.849.913s-.835.329-1.352.329zm7.591-2.512c0 .018-.01.146-.028.384h-3.718a1.16 1.16 0 0 0 .475.721c.25.177.561.265.932.265a1.92 1.92 0 0 0 .676-.109 1.68 1.68 0 0 0 .557-.366l.758.823c-.462.529-1.138.794-2.028.794-.554 0-1.044-.106-1.47-.319a2.412 2.412 0 0 1-.987-.905 2.48 2.48 0 0 1-.347-1.306c0-.481.113-.914.338-1.297a2.4 2.4 0 0 1 .941-.905c.402-.219.85-.329 1.343-.329a2.74 2.74 0 0 1 1.306.311c.39.207.694.506.914.895s.338.832.338 1.343zm-2.549-1.471a1.23 1.23 0 0 0-.813.274 1.171 1.171 0 0 0-.402.75h2.421a1.16 1.16 0 0 0-.402-.74 1.188 1.188 0 0 0-.804-.284z" class="F"/><rect x="138.043" y="59.82" width="31.108" height="31.297" rx="5.22" fill="#65c15d"/><g class="G H"><rect x="148.417" y="70.253" width="10.361" height="10.431" rx=".653"/><path d="m151.005 75.469 1.885 1.956 3.3-3.912" class="J K"/></g><rect x="214.796" y="37" width="103.693" height="96.5" rx="3.795" class="B"/><rect x="214.915" y="37.119" width="103.456" height="96.263" rx="3.676" class="C D E"/><path d="M240.768 106.859a3.752 3.752 0 0 1-1.8-.43 3.243 3.243 0 0 1-1.252-1.178 3.284 3.284 0 0 1-.447-1.699c0-.628.149-1.191.447-1.69a3.216 3.216 0 0 1 1.252-1.188 3.763 3.763 0 0 1 1.8-.429c.663 0 1.26.143 1.79.429s.947.682 1.251 1.188c.305.499.457 1.062.457 1.69s-.152 1.193-.457 1.699a3.233 3.233 0 0 1-1.251 1.178c-.53.287-1.127.43-1.79.43zm0-1.261c.377 0 .718-.085 1.023-.256a1.86 1.86 0 0 0 .712-.731c.177-.31.265-.663.265-1.059s-.088-.749-.265-1.06a1.812 1.812 0 0 0-.712-.722 2.01 2.01 0 0 0-1.023-.264 2.01 2.01 0 0 0-1.024.264 1.874 1.874 0 0 0-.721.722 2.162 2.162 0 0 0-.256 1.06c0 .396.085.749.256 1.059s.417.555.721.731.646.256 1.024.256zm7.232-3.837c.457 0 .871.107 1.243.32a2.22 2.22 0 0 1 .886.886c.213.378.319.819.319 1.325s-.106.95-.319 1.333a2.31 2.31 0 0 1-.886.887 2.51 2.51 0 0 1-1.243.31c-.627 0-1.12-.198-1.48-.594v2.293h-1.425v-6.687h1.361v.567c.354-.427.868-.64 1.544-.64zm-.246 3.892c.365 0 .663-.122.895-.366s.356-.581.356-.995-.119-.743-.356-.987c-.232-.25-.53-.374-.895-.374s-.667.124-.905.374c-.231.244-.347.573-.347.987s.116.746.347.995c.238.244.539.366.905.366zm8.28-1.343a13.65 13.65 0 0 1-.028.384h-3.718a1.16 1.16 0 0 0 .475.721c.25.177.561.265.932.265a1.92 1.92 0 0 0 .676-.109c.201-.08.387-.201.557-.366l.759.822c-.463.53-1.139.795-2.028.795-.555 0-1.045-.106-1.471-.32a2.41 2.41 0 0 1-.987-.904 2.483 2.483 0 0 1-.347-1.306c0-.481.113-.914.338-1.297a2.4 2.4 0 0 1 .941-.905c.402-.219.85-.329 1.343-.329a2.74 2.74 0 0 1 1.306.311c.39.207.695.505.914.895.225.384.338.831.338 1.343zm-2.549-1.471a1.23 1.23 0 0 0-.813.274 1.171 1.171 0 0 0-.402.749h2.421a1.164 1.164 0 0 0-.402-.74 1.192 1.192 0 0 0-.804-.283zm6.302-1.078c.609 0 1.099.183 1.471.548s.566.908.566 1.626v2.814h-1.425v-2.594c0-.39-.085-.679-.256-.868-.17-.195-.417-.292-.74-.292-.359 0-.645.112-.858.338-.214.219-.32.548-.32.986v2.43H256.8v-4.915h1.361v.576a1.84 1.84 0 0 1 .703-.475 2.39 2.39 0 0 1 .923-.174zm2.963 1.846h2.586v1.141h-2.586v-1.141zm8.428.703c0 .018-.01.146-.028.384h-3.718a1.16 1.16 0 0 0 .475.721c.25.177.56.265.932.265a1.92 1.92 0 0 0 .676-.109c.201-.08.387-.201.557-.366l.758.822c-.462.53-1.138.795-2.028.795-.554 0-1.044-.106-1.47-.32a2.403 2.403 0 0 1-.987-.904 2.483 2.483 0 0 1-.347-1.306c0-.481.113-.914.338-1.297.231-.39.545-.692.941-.905a2.76 2.76 0 0 1 1.343-.329 2.74 2.74 0 0 1 1.306.311 2.23 2.23 0 0 1 .914.895c.225.384.338.831.338 1.343zm-2.549-1.471a1.23 1.23 0 0 0-.813.274 1.171 1.171 0 0 0-.402.749h2.421a1.164 1.164 0 0 0-.402-.74 1.192 1.192 0 0 0-.804-.283zm6.302-1.078c.609 0 1.099.183 1.47.548.378.366.567.908.567 1.626v2.814h-1.425v-2.594c0-.39-.085-.679-.256-.868-.171-.195-.417-.292-.74-.292-.359 0-.645.112-.859.338-.213.219-.319.548-.319.986v2.43h-1.425v-4.915h1.361v.576c.188-.207.423-.366.703-.475a2.39 2.39 0 0 1 .923-.174zm8.205-1.79v6.778h-1.361v-.566c-.353.426-.864.639-1.534.639a2.58 2.58 0 0 1-1.261-.31 2.234 2.234 0 0 1-.877-.887c-.213-.383-.32-.828-.32-1.333s.107-.95.32-1.334.505-.679.877-.886a2.581 2.581 0 0 1 1.261-.311c.627 0 1.117.198 1.47.594v-2.384h1.425zm-2.649 5.682c.36 0 .658-.122.895-.366s.357-.581.357-.995-.119-.743-.357-.987a1.18 1.18 0 0 0-.895-.374 1.19 1.19 0 0 0-.904.374c-.238.244-.356.573-.356.987s.118.746.356.995c.237.244.539.366.904.366zm8.6-1.343a13.65 13.65 0 0 1-.028.384h-3.718a1.16 1.16 0 0 0 .475.721c.25.177.561.265.932.265a1.92 1.92 0 0 0 .676-.109c.201-.08.387-.201.557-.366l.759.822c-.463.53-1.139.795-2.028.795-.555 0-1.045-.106-1.471-.32a2.41 2.41 0 0 1-.987-.904 2.483 2.483 0 0 1-.347-1.306c0-.481.113-.914.338-1.297a2.4 2.4 0 0 1 .941-.905c.402-.219.85-.329 1.343-.329.481 0 .917.104 1.306.311s.695.505.914.895c.225.384.338.831.338 1.343zm-2.549-1.471a1.23 1.23 0 0 0-.813.274 1.171 1.171 0 0 0-.402.749h2.421a1.164 1.164 0 0 0-.402-.74 1.192 1.192 0 0 0-.804-.283zm8.321-2.868v6.778h-1.361v-.566c-.354.426-.865.639-1.535.639a2.58 2.58 0 0 1-1.261-.31 2.247 2.247 0 0 1-.877-.887c-.213-.383-.319-.828-.319-1.333s.106-.95.319-1.334.506-.679.877-.886a2.581 2.581 0 0 1 1.261-.311c.627 0 1.118.198 1.471.594v-2.384h1.425zm-2.649 5.682c.359 0 .657-.122.895-.366s.356-.581.356-.995-.119-.743-.356-.987a1.183 1.183 0 0 0-.895-.374c-.366 0-.667.124-.905.374-.237.244-.356.573-.356.987s.119.746.356.995c.238.244.539.366.905.366z" class="F"/><rect x="251.737" y="59.822" width="31.108" height="31.502" rx="5.22" fill="#8c9eff"/><g class="B"><path d="M273.124 72.952a.653.653 0 1 1 0 1.305h-11.665a.652.652 0 1 1 0-1.305h11.665Zm-4.536 3.282a.652.652 0 0 1 0 1.305h-7.129a.653.653 0 1 1 0-1.305h7.129Z" class="I"/><rect x="328.489" y="37" width="103.693" height="96.5" rx="3.795"/></g><rect x="328.608" y="37.119" width="103.456" height="96.263" rx="3.676" class="C D E"/><path d="M367.286 100.097c.567 0 1.057.094 1.471.283.42.189.743.457.968.804s.338.758.338 1.233c0 .469-.112.88-.338 1.233a2.189 2.189 0 0 1-.968.804c-.414.183-.904.274-1.471.274h-1.288v1.763h-1.48v-6.394h2.768zm-.082 3.425c.445 0 .783-.094 1.014-.283.231-.195.347-.469.347-.822 0-.359-.116-.633-.347-.822-.231-.195-.569-.292-1.014-.292h-1.206v2.219h1.206zm5.962 3.042a3.01 3.01 0 0 1-1.397-.319 2.462 2.462 0 0 1-.96-.905 2.48 2.48 0 0 1-.347-1.306 2.48 2.48 0 0 1 .347-1.306c.232-.384.552-.682.96-.896.414-.219.88-.329 1.397-.329a2.89 2.89 0 0 1 1.389.329c.408.214.727.512.959.896a2.48 2.48 0 0 1 .347 1.306 2.48 2.48 0 0 1-.347 1.306 2.459 2.459 0 0 1-.959.905 2.956 2.956 0 0 1-1.389.319zm0-1.169c.366 0 .664-.122.895-.365.238-.25.357-.582.357-.996s-.119-.743-.357-.987c-.231-.249-.529-.374-.895-.374s-.667.125-.904.374-.356.573-.356.987.118.746.356.996a1.21 1.21 0 0 0 .904.365zm3.465-5.682h1.425v6.778h-1.425v-6.778zm2.565 0h1.425v6.778h-1.425v-6.778zm2.565 1.864h1.425v4.914h-1.425v-4.914zm.712-.686c-.262 0-.475-.076-.639-.228a.738.738 0 0 1-.247-.566.74.74 0 0 1 .247-.567c.164-.152.377-.228.639-.228s.475.073.64.22a.704.704 0 0 1 .246.547.79.79 0 0 1-.246.594c-.165.152-.378.228-.64.228zm4.84.612c.609 0 1.099.183 1.471.549s.566.907.566 1.626v2.813h-1.425v-2.594c0-.39-.085-.679-.256-.868-.17-.195-.417-.292-.74-.292-.359 0-.645.112-.859.338-.213.219-.319.548-.319.986v2.43h-1.425v-4.914h1.361v.575a1.85 1.85 0 0 1 .703-.475 2.39 2.39 0 0 1 .923-.174zm8.269.074v4.092c0 .901-.234 1.571-.703 2.01s-1.154.657-2.055.657c-.475 0-.926-.057-1.352-.173s-.78-.283-1.06-.503l.566-1.023c.207.171.469.305.786.402a3.03 3.03 0 0 0 .95.156c.493 0 .856-.113 1.087-.338.238-.22.356-.555.356-1.005v-.21c-.371.408-.889.612-1.553.612a2.67 2.67 0 0 1-1.242-.293 2.307 2.307 0 0 1-.886-.84 2.337 2.337 0 0 1-.329-1.242c0-.469.11-.883.329-1.243a2.24 2.24 0 0 1 .886-.831 2.604 2.604 0 0 1 1.242-.302c.713 0 1.255.235 1.626.704v-.63h1.352zm-2.694 3.507c.377 0 .685-.109.922-.328a1.14 1.14 0 0 0 .366-.877c0-.36-.122-.649-.366-.868-.237-.226-.545-.338-.922-.338s-.689.112-.932.338c-.244.219-.366.508-.366.868a1.14 1.14 0 0 0 .366.877c.243.219.554.328.932.328z" class="F"/><rect x="364.133" y="59.82" width="31.108" height="31.297" rx="5.22" fill="#ffa900"/><g class="B"><path d="M380.332 68.947c.721 0 1.305.584 1.305 1.305v9.78h.639V76.12c0-.72.584-1.305 1.305-1.305h1.287c.721 0 1.305.585 1.305 1.305v3.911a.652.652 0 0 1-.004 1.305H373.207a.652.652 0 0 1-.004-1.305v-5.867c0-.72.584-1.305 1.305-1.305h1.287c.721 0 1.305.584 1.305 1.305v5.867h.639v-9.779c0-.72.585-1.305 1.305-1.305h1.288Zm0 11.084h-1.288v-9.779h1.288v9.78Zm-5.824-5.867h1.287v5.867h-1.287v-5.867Zm10.36 5.867h-1.287v-3.91h1.287v3.91Z" class="I"/><rect x="329.228" y="143.933" width="103.693" height="96.5" rx="3.795"/></g><rect x="329.346" y="144.051" width="103.456" height="96.263" rx="3.676" class="C D E"/><rect x="365.52" y="166.753" width="31.108" height="31.297" rx="5.22" fill="#c3c6cd"/><g class="G"><rect x="376.534" y="177.185" width="9.082" height="10.433" rx="1.305" class="H"/><g stroke-width=".648"><rect x="387.231" y="178.161" width=".648" height="8.48" rx=".324"/><rect x="374.269" y="178.161" width=".648" height="8.48" rx=".324"/></g></g><path d="M373.042 214.186a5.39 5.39 0 0 1-1.47-.201c-.469-.14-.847-.32-1.133-.539l.502-1.115c.274.201.6.363.978.485a3.69 3.69 0 0 0 1.132.182c.421 0 .731-.061.932-.182.201-.128.302-.296.302-.503a.457.457 0 0 0-.183-.374 1.249 1.249 0 0 0-.457-.247 8.525 8.525 0 0 0-.749-.201 10.465 10.465 0 0 1-1.197-.347 1.988 1.988 0 0 1-.803-.557c-.22-.256-.329-.597-.329-1.024 0-.371.1-.706.301-1.004.201-.305.503-.545.904-.722.409-.177.905-.265 1.489-.265.409 0 .807.049 1.197.146s.731.238 1.023.42l-.456 1.124c-.591-.335-1.182-.502-1.773-.502-.414 0-.721.067-.922.201a.615.615 0 0 0-.293.529c0 .22.113.384.338.494.232.103.582.207 1.051.31l1.197.347a1.95 1.95 0 0 1 .794.549c.226.249.338.587.338 1.013 0 .366-.103.701-.31 1.005-.201.299-.506.536-.914.713s-.904.265-1.489.265zm3.441-6.888h1.425v6.778h-1.425v-6.778zm2.565 1.864h1.425v4.914h-1.425v-4.914zm.713-.686c-.262 0-.475-.076-.64-.228a.74.74 0 0 1-.246-.566.74.74 0 0 1 .246-.567c.165-.152.378-.228.64-.228s.475.073.639.219a.701.701 0 0 1 .247.548.788.788 0 0 1-.247.594c-.164.152-.377.228-.639.228zm6.858-1.178v6.778h-1.361v-.566c-.353.426-.865.639-1.535.639-.462 0-.883-.103-1.26-.31a2.232 2.232 0 0 1-.877-.886c-.213-.384-.32-.829-.32-1.334s.107-.95.32-1.334.505-.679.877-.886a2.577 2.577 0 0 1 1.26-.311c.628 0 1.118.198 1.471.594v-2.384h1.425zm-2.649 5.682a1.2 1.2 0 0 0 .895-.365c.238-.25.357-.582.357-.996s-.119-.743-.357-.987a1.185 1.185 0 0 0-.895-.374c-.365 0-.667.125-.904.374s-.357.573-.357.987.119.746.357.996a1.21 1.21 0 0 0 .904.365zm8.6-1.343c0 .018-.01.146-.028.384h-3.718a1.16 1.16 0 0 0 .475.721c.25.177.561.265.932.265a1.92 1.92 0 0 0 .676-.109 1.68 1.68 0 0 0 .557-.366l.758.823c-.462.529-1.138.794-2.027.794-.555 0-1.045-.106-1.471-.319a2.412 2.412 0 0 1-.987-.905 2.483 2.483 0 0 1-.347-1.306c0-.481.113-.914.338-1.297.231-.39.545-.692.941-.905.402-.219.85-.329 1.343-.329a2.74 2.74 0 0 1 1.306.311c.39.207.694.506.914.895.225.384.338.832.338 1.343zm-2.549-1.471a1.23 1.23 0 0 0-.813.274 1.171 1.171 0 0 0-.402.75h2.421a1.16 1.16 0 0 0-.402-.74 1.188 1.188 0 0 0-.804-.284z" class="F"/><g filter="url(#C)" class="B"><rect x="455" y="88" width="64" height="64" rx="5"/></g><path d="M488.5 110.667a1.5 1.5 0 1 0-3 0v7.833h-7.833a1.5 1.5 0 1 0 0 3h7.833v7.833a1.5 1.5 0 1 0 3 0V121.5h7.833a1.5 1.5 0 1 0 0-3H488.5v-7.833Z" fill="#6049eb" class="I"/><g filter="url(#D)" class="B"><rect x="15" y="171.398" width="79.527" height="79.082" rx="5"/></g><g stroke-width="3" class="J K"><path d="m43.166 205.172 4.745 5.767 9.752-10.091" stroke="#65c15d"/><path d="M66.361 211.66l-8.698 8.649m0-8.649l8.698 8.649" stroke="#ee426a"/></g><rect x="15" y="171" width="80" height="80" rx="8" class="B"/><path d="M56.317 197.418a5.464 5.464 0 0 1 7.726 0l4.539 4.539a5.463 5.463 0 0 1 0 7.726l-15.145 15.145a3.645 3.645 0 0 1-2.45 1.065l-8.343.287a2.731 2.731 0 0 1-2.825-2.824l.288-8.343a3.644 3.644 0 0 1 1.065-2.45l15.145-15.145Zm5.15 2.575a1.821 1.821 0 0 0-2.575 0l-2.301 2.302 7.114 7.114 2.302-2.302a1.82 1.82 0 0 0 0-2.575l-4.54-4.539Zm-.337 11.991-7.114-7.114-10.269 10.269-.254 7.368 7.368-.254 10.269-10.269Z" fill="#6049eb" stroke-width=".5" class="G I"/><g filter="url(#E)" class="B"><rect x="463" y="260" width="48.27" height="48" rx="5"/></g><path d="M480 291.29v-14.58a1 1 0 0 1 1.49-.872l12.961 7.29a1.001 1.001 0 0 1 0 1.744l-12.961 7.29a1 1 0 0 1-1.49-.872Z" stroke="#6049eb" stroke-width="3"/><defs><filter id="B" x="31" y="0" width="472" height="388" filterUnits="userSpaceOnUse" class="L"><feFlood result="A" class="M"/><feColorMatrix in="SourceAlpha" values="0 0 0 0 0 0 0 0 0 0 0 0 0 0 0 0 0 0 127 0" result="B"/><feOffset dy="2"/><feGaussianBlur stdDeviation="8"/><feComposite in2="B" operator="out"/><feColorMatrix values="0 0 0 0 0 0 0 0 0 0 0 0 0 0 0 0 0 0 0.2 0"/><feBlend in2="A"/><feBlend in="SourceGraphic"/></filter><filter id="C" x="440" y="74" width="96" height="96" filterUnits="userSpaceOnUse" class="L"><feFlood result="A" class="M"/><feColorMatrix in="SourceAlpha" values="0 0 0 0 0 0 0 0 0 0 0 0 0 0 0 0 0 0 127 0"/><feOffset dx="1" dy="2"/><feGaussianBlur stdDeviation="8"/><feColorMatrix values="0 0 0 0 0 0 0 0 0 0 0 0 0 0 0 0 0 0 0.2 0"/><feBlend in2="A"/><feBlend in="SourceGraphic"/></filter><filter id="D" x="0" y="157.398" width="111.527" height="111.083" filterUnits="userSpaceOnUse" class="L"><feFlood result="A" class="M"/><feColorMatrix in="SourceAlpha" values="0 0 0 0 0 0 0 0 0 0 0 0 0 0 0 0 0 0 127 0"/><feOffset dx="1" dy="2"/><feGaussianBlur stdDeviation="8"/><feColorMatrix values="0 0 0 0 0 0 0 0 0 0 0 0 0 0 0 0 0 0 0.2 0"/><feBlend in2="A"/><feBlend in="SourceGraphic"/></filter><filter id="E" x="448" y="246" width="80.269" height="80" filterUnits="userSpaceOnUse" class="L"><feFlood result="A" class="M"/><feColorMatrix in="SourceAlpha" values="0 0 0 0 0 0 0 0 0 0 0 0 0 0 0 0 0 0 127 0"/><feOffset dx="1" dy="2"/><feGaussianBlur stdDeviation="8"/><feColorMatrix values="0 0 0 0 0 0 0 0 0 0 0 0 0 0 0 0 0 0 0.2 0"/><feBlend in2="A"/><feBlend in="SourceGraphic"/></filter></defs></svg>